<?xml version="1.0" encoding="UTF-8" standalone="no"?>
<!DOCTYPE svg PUBLIC "-//W3C//DTD SVG 1.1//EN"
 "http://www.w3.org/Graphics/SVG/1.1/DTD/svg11.dtd">
<!-- Generated by graphviz version 2.42.4 (0)
 -->
<!-- Title: training Pages: 1 -->
<svg width="660pt" height="1064pt"
 viewBox="0.00 0.00 659.60 1063.60" xmlns="http://www.w3.org/2000/svg" xmlns:xlink="http://www.w3.org/1999/xlink">
<g id="graph0" class="graph" transform="scale(1 1) rotate(0) translate(28.8 1034.8)">
<title>training</title>
<polygon fill="white" stroke="transparent" points="-28.8,28.8 -28.8,-1034.8 630.8,-1034.8 630.8,28.8 -28.8,28.8"/>
<text text-anchor="middle" x="301" y="-982.8" font-family="DejaVu Sans" font-size="24.00" fill="#17334a">TRAINING PROCESS</text>
<text text-anchor="middle" x="301" y="-956.8" font-family="DejaVu Sans" font-size="24.00" fill="#17334a">A staged curriculum with different update clocks</text>
<g id="clust1" class="cluster">
<title>cluster_curriculum</title>
<path fill="#f7fafc" stroke="#cbd8e1" d="M102,-646C102,-646 461,-646 461,-646 467,-646 473,-652 473,-658 473,-658 473,-926 473,-926 473,-932 467,-938 461,-938 461,-938 102,-938 102,-938 96,-938 90,-932 90,-926 90,-926 90,-658 90,-658 90,-652 96,-646 102,-646"/>
<text text-anchor="middle" x="281.5" y="-922" font-family="DejaVu Sans" font-size="15.00" fill="#17334a">CURRICULUM &#160;| &#160;Human&#45;readable game numbers</text>
</g>
<!-- warm&#45;&gt;phase -->
<g id="edge1" class="edge">
<title>warm&#45;&gt;phase</title>
<path fill="none" stroke="#6e8495" stroke-width="1.4" d="M281,-845.79C281,-836.58 281,-826.27 281,-816.61"/>
<polygon fill="#6e8495" stroke="#6e8495" stroke-width="1.4" points="283.63,-816.54 281,-809.04 278.38,-816.54 283.63,-816.54"/>
</g>
<!-- phase&#45;&gt;full -->
<g id="edge2" class="edge">
<title>phase&#45;&gt;full</title>
<path fill="none" stroke="#6e8495" stroke-width="1.4" d="M281,-749.79C281,-740.58 281,-730.27 281,-720.61"/>
<polygon fill="#6e8495" stroke="#6e8495" stroke-width="1.4" points="283.63,-720.54 281,-713.04 278.38,-720.54 283.63,-720.54"/>
</g>
<!-- full&#45;&gt;reset -->
<g id="edge3" class="edge">
<title>full&#45;&gt;reset</title>
<path fill="none" stroke="#6e8495" stroke-width="1.4" d="M281,-653.79C281,-644.58 281,-634.27 281,-624.61"/>
<polygon fill="#6e8495" stroke="#6e8495" stroke-width="1.4" points="283.63,-624.54 281,-617.04 278.38,-624.54 283.63,-624.54"/>
</g>
<!-- reset&#45;&gt;daily -->
<g id="edge4" class="edge">
<title>reset&#45;&gt;daily</title>
<path fill="none" stroke="#6e8495" stroke-width="1.4" d="M281,-557.84C281,-548.83 281,-538.67 281,-528.91"/>
<polygon fill="#6e8495" stroke="#6e8495" stroke-width="1.4" points="283.63,-528.69 281,-521.19 278.38,-528.69 283.63,-528.69"/>
</g>
<!-- daily&#45;&gt;turn -->
<g id="edge5" class="edge">
<title>daily&#45;&gt;turn</title>
<path fill="none" stroke="#6e8495" stroke-width="1.4" d="M281,-449.7C281,-437.54 281,-423.75 281,-411.03"/>
<polygon fill="#6e8495" stroke="#6e8495" stroke-width="1.4" points="283.63,-410.78 281,-403.28 278.38,-410.78 283.63,-410.78"/>
</g>
<!-- turn&#45;&gt;daily -->
<g id="edge8" class="edge">
<title>turn&#45;&gt;daily</title>
<path fill="none" stroke="#6e8495" stroke-width="1.4" stroke-dasharray="5,2" d="M292.24,-403.23C295.41,-412.99 298,-421 298,-421 298,-421 298,-432 298,-432 298,-432 296.6,-436.32 294.61,-442.48"/>
<polygon fill="#6e8495" stroke="#6e8495" stroke-width="1.4" points="292.06,-441.83 292.24,-449.77 297.05,-443.45 292.06,-441.83"/>
<text text-anchor="middle" x="319.5" y="-424" font-family="DejaVu Sans" font-size="10.00" fill="#526c7d">next day</text>
</g>
<!-- turn&#45;&gt;dqn -->
<g id="edge6" class="edge">
<title>turn&#45;&gt;dqn</title>
<path fill="none" stroke="#6e8495" stroke-width="1.4" d="M281,-332C281,-319.58 281,-305.53 281,-292.95"/>
<polygon fill="#6e8495" stroke="#6e8495" stroke-width="1.4" points="283.63,-292.84 281,-285.34 278.38,-292.84 283.63,-292.84"/>
</g>
<!-- dqn&#45;&gt;turn -->
<g id="edge7" class="edge">
<title>dqn&#45;&gt;turn</title>
<path fill="none" stroke="#6e8495" stroke-width="1.4" stroke-dasharray="5,2" d="M291.48,-285.15C294.97,-294.72 298,-303 298,-303 298,-303 298,-314 298,-314 298,-314 296.6,-318.32 294.61,-324.48"/>
<polygon fill="#6e8495" stroke="#6e8495" stroke-width="1.4" points="292.06,-323.83 292.24,-331.77 297.05,-325.45 292.06,-323.83"/>
<text text-anchor="middle" x="322.5" y="-306" font-family="DejaVu Sans" font-size="10.00" fill="#526c7d">same day</text>
</g>
<!-- dqn&#45;&gt;end -->
<g id="edge9" class="edge">
<title>dqn&#45;&gt;end</title>
<path fill="none" stroke="#6e8495" stroke-width="1.4" d="M281,-225.89C281,-213.97 281,-199.88 281,-186.81"/>
<polygon fill="#6e8495" stroke="#6e8495" stroke-width="1.4" points="283.63,-186.75 281,-179.25 278.38,-186.75 283.63,-186.75"/>
<text text-anchor="middle" x="325" y="-200" font-family="DejaVu Sans" font-size="10.00" fill="#526c7d">episode complete</text>
</g>
<!-- end&#45;&gt;periodic -->
<g id="edge10" class="edge">
<title>end&#45;&gt;periodic</title>
<path fill="none" stroke="#6e8495" stroke-width="1.4" d="M281,-107.79C281,-98.55 281,-88.46 281,-78.86"/>
<polygon fill="#6e8495" stroke="#6e8495" stroke-width="1.4" points="283.63,-78.79 281,-71.29 278.38,-78.79 283.63,-78.79"/>
</g>
<!-- periodic&#45;&gt;reset -->
<g id="edge11" class="edge">
<title>periodic&#45;&gt;reset</title>
<path fill="none" stroke="#6e8495" stroke-width="1.4" stroke-dasharray="5,2" d="M371.49,-71.1C419.22,-89.35 468,-108 468,-108 468,-108 468,-179 468,-179 468,-179 467,-403 467,-403 467,-403 448,-521 448,-521 448,-521 403.82,-538.33 360.91,-555.16"/>
<polygon fill="#6e8495" stroke="#6e8495" stroke-width="1.4" points="359.79,-552.78 353.76,-557.96 361.7,-557.67 359.79,-552.78"/>
<text text-anchor="middle" x="493.5" y="-306" font-family="DejaVu Sans" font-size="10.00" fill="#526c7d">next game</text>
</g>
<!-- warm -->
<g id="node1" class="node">
<title>warm</title>
<path fill="#e5f0fa" stroke="#b6c8d4" stroke-width="1.2" d="M345,-905C345,-905 217,-905 217,-905 211,-905 205,-899 205,-893 205,-893 205,-858 205,-858 205,-852 211,-846 217,-846 217,-846 345,-846 345,-846 351,-846 357,-852 357,-858 357,-858 357,-893 357,-893 357,-899 351,-905 345,-905"/>
<text text-anchor="start" x="237" y="-884.6" font-family="DejaVu Sans" font-weight="bold" font-size="13.00" fill="#17334a">GAMES 1&#45;10</text>
<text text-anchor="start" x="222" y="-872.4" font-family="DejaVu Sans" font-size="12.00" fill="#17334a">CNN + DQN worker</text>
<text text-anchor="start" x="221" y="-860.4" font-family="DejaVu Sans" font-size="12.00" fill="#17334a">Heuristic daily plans</text>
</g>
<!-- phase -->
<g id="node2" class="node">
<title>phase</title>
<path fill="#ddf3e9" stroke="#b6c8d4" stroke-width="1.2" d="M356,-809C356,-809 206,-809 206,-809 200,-809 194,-803 194,-797 194,-797 194,-762 194,-762 194,-756 200,-750 206,-750 206,-750 356,-750 356,-750 362,-750 368,-756 368,-762 368,-762 368,-797 368,-797 368,-803 362,-809 356,-809"/>
<text text-anchor="start" x="232.5" y="-788.6" font-family="DejaVu Sans" font-weight="bold" font-size="13.00" fill="#17334a">GAMES 11&#45;30</text>
<text text-anchor="start" x="210" y="-776.4" font-family="DejaVu Sans" font-size="12.00" fill="#17334a">Add phase&#45;planner PPO</text>
<text text-anchor="start" x="242.5" y="-764.4" font-family="DejaVu Sans" font-size="12.00" fill="#17334a">Use expert 0</text>
</g>
<!-- full -->
<g id="node3" class="node">
<title>full</title>
<path fill="#eee8fb" stroke="#b6c8d4" stroke-width="1.2" d="M397.5,-713C397.5,-713 164.5,-713 164.5,-713 158.5,-713 152.5,-707 152.5,-701 152.5,-701 152.5,-666 152.5,-666 152.5,-660 158.5,-654 164.5,-654 164.5,-654 397.5,-654 397.5,-654 403.5,-654 409.5,-660 409.5,-666 409.5,-666 409.5,-701 409.5,-701 409.5,-707 403.5,-713 397.5,-713"/>
<text text-anchor="start" x="213" y="-692.6" font-family="DejaVu Sans" font-weight="bold" font-size="13.00" fill="#17334a">GAME 31 ONWARD</text>
<text text-anchor="start" x="183" y="-680.4" font-family="DejaVu Sans" font-size="12.00" fill="#17334a">Copy expert 0 into other experts</text>
<text text-anchor="start" x="168.5" y="-668.4" font-family="DejaVu Sans" font-size="12.00" fill="#17334a">Enable learned grand&#45;planner routing</text>
</g>
<!-- reset -->
<g id="node4" class="node">
<title>reset</title>
<path fill="#edf1f4" stroke="#b6c8d4" stroke-width="1.2" d="M442,-617C442,-617 120,-617 120,-617 114,-617 108,-611 108,-605 108,-605 108,-570 108,-570 108,-564 114,-558 120,-558 120,-558 442,-558 442,-558 448,-558 454,-564 454,-570 454,-570 454,-605 454,-605 454,-611 448,-617 442,-617"/>
<text text-anchor="start" x="229.5" y="-596.6" font-family="DejaVu Sans" font-weight="bold" font-size="13.00" fill="#17334a">NEW EPISODE</text>
<text text-anchor="start" x="124" y="-584.4" font-family="DejaVu Sans" font-size="12.00" fill="#17334a">Reset environment, hidden states and ArenaAdapter</text>
<text text-anchor="start" x="166.5" y="-572.4" font-family="DejaVu Sans" font-size="12.00" fill="#17334a">Opponent: starter or frozen champion</text>
</g>
<!-- daily -->
<g id="node5" class="node">
<title>daily</title>
<path fill="#ddf3e9" stroke="#b6c8d4" stroke-width="1.2" d="M425,-521C425,-521 137,-521 137,-521 131,-521 125,-515 125,-509 125,-509 125,-462 125,-462 125,-456 131,-450 137,-450 137,-450 425,-450 425,-450 431,-450 437,-456 437,-462 437,-462 437,-509 437,-509 437,-515 431,-521 425,-521"/>
<text text-anchor="start" x="246.5" y="-500.6" font-family="DejaVu Sans" font-weight="bold" font-size="13.00" fill="#17334a">NEW DAY</text>
<text text-anchor="start" x="162" y="-488.4" font-family="DejaVu Sans" font-size="12.00" fill="#17334a">Adjust economic maps and update CNN</text>
<text text-anchor="start" x="144" y="-476.4" font-family="DejaVu Sans" font-size="12.00" fill="#17334a">Select phase when scheduled; build daily plan</text>
<text text-anchor="start" x="141" y="-464.4" font-family="DejaVu Sans" font-size="12.00" fill="#17334a">Record forced&#45;action flags for planner learning</text>
</g>
<!-- turn -->
<g id="node6" class="node">
<title>turn</title>
<path fill="#e5f0fa" stroke="#b6c8d4" stroke-width="1.2" d="M443.5,-403C443.5,-403 118.5,-403 118.5,-403 112.5,-403 106.5,-397 106.5,-391 106.5,-391 106.5,-344 106.5,-344 106.5,-338 112.5,-332 118.5,-332 118.5,-332 443.5,-332 443.5,-332 449.5,-332 455.5,-338 455.5,-344 455.5,-344 455.5,-391 455.5,-391 455.5,-397 449.5,-403 443.5,-403"/>
<text text-anchor="start" x="238.5" y="-382.6" font-family="DejaVu Sans" font-weight="bold" font-size="13.00" fill="#17334a">EACH TURN</text>
<text text-anchor="start" x="122.5" y="-370.4" font-family="DejaVu Sans" font-size="12.00" fill="#17334a">Encode workers; choose legal epsilon&#45;greedy actions</text>
<text text-anchor="start" x="154" y="-358.4" font-family="DejaVu Sans" font-size="12.00" fill="#17334a">Execute actions; compute shaped rewards</text>
<text text-anchor="start" x="162" y="-346.4" font-family="DejaVu Sans" font-size="12.00" fill="#17334a">Append per&#45;worker transitions to replay</text>
</g>
<!-- dqn -->
<g id="node7" class="node">
<title>dqn</title>
<path fill="#eee8fb" stroke="#b6c8d4" stroke-width="1.2" d="M428,-285C428,-285 134,-285 134,-285 128,-285 122,-279 122,-273 122,-273 122,-238 122,-238 122,-232 128,-226 134,-226 134,-226 428,-226 428,-226 434,-226 440,-232 440,-238 440,-238 440,-273 440,-273 440,-279 434,-285 428,-285"/>
<text text-anchor="start" x="194.5" y="-264.6" font-family="DejaVu Sans" font-weight="bold" font-size="13.00" fill="#17334a">WORKER DQN UPDATES</text>
<text text-anchor="start" x="138" y="-252.4" font-family="DejaVu Sans" font-size="12.00" fill="#17334a">After 1,000 replay entries: update every 4 steps</text>
<text text-anchor="start" x="156" y="-240.4" font-family="DejaVu Sans" font-size="12.00" fill="#17334a">Batch 128 | target sync every 2,000 steps</text>
</g>
<!-- end -->
<g id="node8" class="node">
<title>end</title>
<path fill="#ddf3e9" stroke="#b6c8d4" stroke-width="1.2" d="M444.5,-179C444.5,-179 117.5,-179 117.5,-179 111.5,-179 105.5,-173 105.5,-167 105.5,-167 105.5,-120 105.5,-120 105.5,-114 111.5,-108 117.5,-108 117.5,-108 444.5,-108 444.5,-108 450.5,-108 456.5,-114 456.5,-120 456.5,-120 456.5,-167 456.5,-167 456.5,-173 450.5,-179 444.5,-179"/>
<text text-anchor="start" x="195.5" y="-158.6" font-family="DejaVu Sans" font-weight="bold" font-size="13.00" fill="#17334a">EPISODE&#45;END UPDATES</text>
<text text-anchor="start" x="121.5" y="-146.4" font-family="DejaVu Sans" font-size="12.00" fill="#17334a">Finalize strategic&#45;value rewards + cash&#45;margin bonus</text>
<text text-anchor="start" x="181.5" y="-134.4" font-family="DejaVu Sans" font-size="12.00" fill="#17334a">Phase PPO + capital teacher loss</text>
<text text-anchor="start" x="185" y="-122.4" font-family="DejaVu Sans" font-size="12.00" fill="#17334a">Grand&#45;planner PPO when active</text>
</g>
<!-- periodic -->
<g id="node9" class="node">
<title>periodic</title>
<path fill="#fff0d2" stroke="#b6c8d4" stroke-width="1.2" d="M425,-71C425,-71 137,-71 137,-71 131,-71 125,-65 125,-59 125,-59 125,-12 125,-12 125,-6 131,0 137,0 137,0 425,0 425,0 431,0 437,-6 437,-12 437,-12 437,-59 437,-59 437,-65 431,-71 425,-71"/>
<text text-anchor="start" x="209.5" y="-50.6" font-family="DejaVu Sans" font-weight="bold" font-size="13.00" fill="#17334a">PERIODIC OUTPUTS</text>
<text text-anchor="start" x="141" y="-38.4" font-family="DejaVu Sans" font-size="12.00" fill="#17334a">Every 25 games: overwrite training checkpoint</text>
<text text-anchor="start" x="160.5" y="-26.4" font-family="DejaVu Sans" font-size="12.00" fill="#17334a">Every 100 games: challenger evaluation</text>
<text text-anchor="start" x="146.5" y="-14.4" font-family="DejaVu Sans" font-size="12.00" fill="#17334a">Every 200 games: reheat learner exploration</text>
</g>
</g>
</svg>
